User Type,Username,Date,Text
,sskain,2012-03-20T16:33Z,".cue


REM GENRE Punk Rock
REM DATE 1978
PERFORMER ""The Stranglers""
TITLE ""Black and White""
FILE ""The Stranglers - Black and White side 1.flac"" WAVE
TRACK 01 AUDIO
TITLE ""Tank""
INDEX 01 00:00:00
TRACK 02 AUDIO
TITLE ""Nice 'N' Sleazy""
INDEX 01 02:59:26
TRACK 03 AUDIO
TITLE ""Outside Tokyo""
INDEX 01 06:13:21
TRACK 04 AUDIO
TITLE ""Sweden (All Quiet on the Eastern Front)""
INDEX 01 08:24:41
TRACK 05 AUDIO
TITLE ""Hey! (Rise of the Robots)""
INDEX 01 11:17:03
TRACK 06 AUDIO
TITLE ""Toiler on the Sea""
INDEX 01 13:34:30
FILE ""The Stranglers - Black and White side 2.flac"" WAVE
TRACK 07 AUDIO
TITLE ""Curfew""
INDEX 01 00:00:00
TRACK 08 AUDIO
TITLE ""Threatened""
INDEX 01 03:20:26
TRACK 09 AUDIO
TITLE ""Do You Wanna / Death and Night and Blood (Yukio)""
INDEX 01 06:55:40
TRACK 10 AUDIO
TITLE ""In the Shadows""
INDEX 01 12:16:23
TRACK 11 AUDIO
TITLE ""Enough Time""
INDEX 01 16:55:06"
